<?xml version="1.0" encoding="UTF-8"?>
<svg xmlns="http://www.w3.org/2000/svg" width="198" height="73" viewBox="0 0 198 73" fill="none">
  <path d="M105.01 23.9805V38.1333H108.431V23.9805H105.01Z" fill="#1A383A"></path>
  <path d="M117.029 26.1431V29.7566H124.282V26.1431H117.029Z" fill="#1A383A"></path>
  <path d="M106.748 21.4894C107.914 21.4894 108.859 20.5416 108.859 19.3724C108.859 18.2032 107.914 17.2554 106.748 17.2554C105.582 17.2554 104.637 18.2032 104.637 19.3724C104.637 20.5416 105.582 21.4894 106.748 21.4894Z" fill="#1A383A"></path>
  <path d="M142.062 24.7287C138.413 24.7287 135.046 24.3637 135.046 21.7357C135.046 20.0567 136.22 18.0583 141.816 18.0583C145.629 18.0583 148.268 19.4271 148.559 21.5076H152.736C152.499 17.228 148.168 14.3718 141.816 14.3718C136.83 14.3718 130.879 15.6493 130.879 21.7357C130.879 26.4716 133.991 28.4061 141.616 28.4061C145.302 28.4061 149.069 28.7802 149.069 31.5998C149.069 33.0872 148.122 35.5783 141.816 35.5783C137.649 35.5783 134.873 34.237 134.582 32.12H130.396C130.651 36.4087 135.174 39.2557 141.816 39.2557C147.031 39.2557 153.236 37.9235 153.236 31.5998C153.236 26.7818 149.897 24.7287 142.053 24.7287H142.062Z" fill="#1A383A"></path>
  <path d="M176.595 29.4738C176.595 26.1797 175.676 23.6156 173.838 21.7906C172 19.9564 169.534 19.0439 166.431 19.0439C163.328 19.0439 160.935 20.0112 158.997 21.9457C157.058 23.8802 156.094 26.2983 156.094 29.2092C156.094 32.1201 157.086 34.5656 159.078 36.4909C161.071 38.4163 163.61 39.3653 166.677 39.3653C168.779 39.3653 170.671 38.9091 172.336 38.0057C174.002 37.1023 175.312 35.8431 176.249 34.2279L172.746 32.6767C171.317 34.9579 169.352 36.1077 166.849 36.1077C165.02 36.1077 163.455 35.5328 162.154 34.3922C160.844 33.2516 160.161 31.7459 160.107 29.8753H176.55L176.595 29.4829V29.4738ZM160.407 26.9006C160.744 25.5044 161.453 24.3821 162.527 23.5517C163.592 22.7213 164.866 22.3016 166.349 22.3016C168.142 22.3016 169.57 22.7396 170.644 23.6064C171.709 24.4733 172.3 25.5683 172.418 26.8914H160.416L160.407 26.9006Z" fill="#1A383A"></path>
  <path d="M195.213 21.1701C193.53 19.7557 191.246 19.0439 188.343 19.0439C184.612 19.0439 181.8 20.2849 179.889 22.7761L183.347 24.7653C184.63 23.0772 186.359 22.2377 188.561 22.2377C190.008 22.2377 191.282 22.6757 192.365 23.5426C193.448 24.4094 193.985 25.4679 193.985 26.7089V27.5302C192.474 26.7546 190.554 26.3622 188.216 26.3622C185.486 26.3622 183.302 26.9462 181.664 28.1142C180.026 29.2822 179.207 30.8517 179.207 32.8227C179.207 34.6933 179.98 36.2446 181.537 37.4947C183.083 38.7448 185.013 39.3653 187.324 39.3653C190.026 39.3653 192.192 38.2703 193.812 36.0986H193.985V38.7448H197.743V26.9827C197.743 24.5189 196.906 22.5753 195.222 21.1609L195.213 21.1701ZM192.028 34.5017C190.736 35.6149 189.262 36.1716 187.606 36.1716C186.441 36.1716 185.422 35.8613 184.558 35.2408C183.693 34.6112 183.256 33.8356 183.256 32.9048C183.256 31.8646 183.793 30.9977 184.858 30.2951C185.932 29.5924 187.26 29.2457 188.853 29.2457C191.046 29.2457 192.756 29.6928 193.976 30.5688C193.976 32.0744 193.33 33.3884 192.028 34.5017Z" fill="#1A383A"></path>
  <path d="M106.047 57.2137V47.9883H104.637V58.3999H112.781V57.2137H106.047Z" fill="#1A383A"></path>
  <path d="M116.193 47.9883V58.3999H117.604V47.9883H116.193Z" fill="#1A383A"></path>
  <path d="M121.016 47.9883V49.1745H125.502V58.3999H126.912V49.1745H131.398V47.9883H121.016Z" fill="#1A383A"></path>
  <path d="M134.027 47.9883V49.1745H138.513V58.3999H139.924V49.1745H144.41V47.9883H134.027Z" fill="#1A383A"></path>
  <path d="M151.791 47.7603C148.652 47.7603 146.377 50.0506 146.377 53.1896C146.377 56.3286 148.652 58.619 151.791 58.619C154.931 58.619 157.205 56.3378 157.205 53.1896C157.205 50.0415 154.921 47.7603 151.791 47.7603ZM151.791 57.3233C149.535 57.3233 147.897 55.5895 147.897 53.1896C147.897 50.7898 149.535 49.056 151.791 49.056C154.048 49.056 155.686 50.7898 155.686 53.1896C155.686 55.5895 154.048 57.3233 151.791 57.3233Z" fill="#1A383A"></path>
  <path d="M168.615 54.4579L168.087 53.8465L168.888 53.7644C170.471 53.6002 171.454 52.5234 171.454 50.9448C171.454 49.1472 170.298 47.9883 168.506 47.9883H160.844V58.3999H162.254V53.7918H166.713L169.561 58.3999H171.117L168.979 54.9415C168.906 54.8138 168.769 54.6313 168.615 54.4579ZM162.254 52.5964V49.1745H168.506C169.416 49.1745 170.043 49.8133 170.043 50.7167V51.0543C170.043 51.9668 169.416 52.5964 168.506 52.5964H162.254Z" fill="#1A383A"></path>
  <path d="M181.464 47.9883H178.661L174.402 58.3999H175.876L176.796 56.146H183.284L184.203 58.3999H185.722L181.464 47.9883ZM177.287 54.9598L179.644 49.1745H180.426L182.783 54.9598H177.278H177.287Z" fill="#1A383A"></path>
  <path d="M190.528 57.2137V47.9883H189.117V58.3999H197.261V57.2137H190.528Z" fill="#1A383A"></path>
  <path d="M65.5442 0H7.25236C3.24699 0 0 3.25606 0 7.27262V65.7274C0 69.7439 3.24699 73 7.25236 73H65.5442C69.5496 73 72.7966 69.7439 72.7966 65.7274V7.27262C72.7966 3.25606 69.5496 0 65.5442 0Z" fill="#4A88AB"></path>
  <path d="M62.8066 34.6202C62.7976 34.4286 62.7794 34.2369 62.7612 34.0544C62.5974 32.2933 62.2607 30.5778 61.7693 28.9262C61.742 28.8076 61.7056 28.6889 61.6601 28.5794C59.9676 23.1592 56.5825 18.4781 52.1237 15.1657C52.0419 15.1018 51.9509 15.0379 51.869 14.9832C51.0591 14.3901 50.2037 13.8426 49.3211 13.3407C49.221 13.2859 49.1209 13.2312 49.0208 13.1764C48.5931 12.9483 48.1654 12.7202 47.7287 12.5194C47.6195 12.4647 47.5012 12.4099 47.392 12.3643C46.0361 11.7347 44.6166 11.2237 43.1425 10.8313C42.824 10.7492 42.5055 10.6671 42.1779 10.5941C40.3125 10.1743 38.3743 9.95532 36.3906 9.95532C36.0539 9.95532 35.7263 9.95532 35.3896 9.97357C35.244 9.97357 35.1075 9.9827 34.9711 9.99182C26.8542 10.4207 19.6929 14.5361 15.134 20.6954C14.8974 21.0057 14.679 21.3251 14.4697 21.6444C11.5942 25.8876 9.91992 31.0067 9.91992 36.4999C9.91992 41.6647 11.3941 46.4918 13.951 50.5707C14.0875 50.7897 14.2331 51.0087 14.3787 51.2277C16.1804 53.9287 18.4644 56.2829 21.0942 58.1536C21.349 58.3361 21.6038 58.5094 21.8677 58.6828C26.0444 61.4386 31.0309 63.0446 36.3906 63.0446C38.0376 63.0446 39.6391 62.8986 41.2043 62.6066C41.4681 62.561 41.7229 62.5062 41.9868 62.4515C43.9705 62.0226 45.8632 61.3747 47.6559 60.5261C47.8834 60.4166 48.1108 60.3071 48.3292 60.1884C51.6415 58.5094 54.5533 56.1461 56.8828 53.29C57.0011 53.144 57.1194 52.9979 57.2377 52.8519C57.8747 52.0398 58.4571 51.2003 58.9939 50.3152C59.094 50.1509 59.185 49.9958 59.2851 49.8316C60.6501 47.4865 61.6601 44.9132 62.2516 42.194C62.2971 42.0114 62.3335 41.8198 62.3699 41.6282C62.652 40.2047 62.8158 38.7356 62.8521 37.2299C62.8521 37.0931 62.8521 36.9562 62.8521 36.8193C62.8521 36.7189 62.8521 36.6186 62.8521 36.5091C62.8521 35.8794 62.8249 35.2498 62.7885 34.6293L62.8066 34.6202ZM51.1319 15.6858C55.4087 18.7427 58.7118 23.0953 60.4681 28.1597C59.6036 27.9224 58.7118 27.7582 57.8474 27.6304C55.7636 27.3202 53.5524 27.2381 51.4686 27.6031C50.0036 27.8586 48.6386 28.5064 47.2282 28.9262C45.845 29.3277 44.0524 29.7292 42.824 28.7802C40.8676 27.2746 41.6046 24.8382 42.7239 23.1044C44.1252 20.9601 46.1635 19.1624 48.2564 17.6021C49.1482 16.9359 50.0763 16.2972 51.05 15.7314C51.0773 15.7132 51.1137 15.6949 51.141 15.6767L51.1319 15.6858ZM47.8288 13.6874C47.7378 13.7239 47.6468 13.7696 47.5558 13.8061C46.7368 14.1437 45.8905 14.4357 45.0989 14.8189C43.9159 15.3847 42.8331 16.1421 42.005 17.1184C41.1588 18.1131 40.5855 19.2628 40.1123 20.4491C39.4935 22.0094 38.9658 23.6246 38.6655 25.2579C38.5108 26.1066 38.4198 26.9643 38.4471 27.8312C38.4744 28.6251 38.5836 29.4463 38.8748 30.1946C39.8666 32.6674 42.9696 33.3701 45.5175 33.4978C45.8359 33.5069 46.1544 33.5161 46.482 33.5161H46.4911C46.4911 33.5161 46.5275 33.5161 46.5548 33.5069C46.9279 33.4704 47.2737 33.2514 47.5831 33.0689C48.0744 32.7769 48.5476 32.4393 49.0299 32.1199C49.5486 31.7823 50.0672 31.4447 50.6314 31.1709C51.0864 30.9519 51.6051 30.7421 52.1329 30.7421C52.4149 30.7421 52.6788 30.8424 52.9336 30.9611C53.0701 31.0249 53.3431 31.1527 53.3431 31.3169C53.3431 31.4538 53.1702 31.5724 53.0519 31.6454C52.8426 31.7823 52.6151 31.8918 52.3785 31.9922C51.9145 32.1929 51.4231 32.3481 50.9772 32.5762C50.2401 32.9594 49.6123 33.4613 48.9844 33.9814C47.7105 35.0582 46.3 35.9616 44.7986 36.7281C44.0615 37.1113 43.2972 37.4581 42.5055 37.7409C41.7684 38.0056 40.995 38.2063 40.2033 38.1424C38.7019 38.0329 37.5371 36.9653 36.5089 36.0437C35.9083 35.5053 35.3441 34.9396 34.8892 34.2826C34.4615 33.6803 34.1248 33.0416 33.8791 32.3663C32.9054 29.6653 33.5242 26.7088 34.8892 24.2268C35.2531 23.5698 35.6717 22.9402 36.1358 22.3379C36.6363 21.6901 37.2095 21.0969 37.7282 20.4673C38.8748 19.0986 39.9121 17.6386 41.1679 16.3428C41.7866 15.7041 42.46 15.1018 43.2244 14.5999C43.9523 14.1254 44.7349 13.7331 45.5357 13.3772C45.8268 13.2494 46.1362 13.1217 46.4365 13.0031C46.9097 13.2038 47.3738 13.4228 47.8288 13.6601V13.6874ZM34.2431 11.0594C33.8973 11.8442 33.8427 12.7019 33.7062 13.5688C33.5424 14.6091 33.1329 15.3664 32.2685 16.0234C31.4222 16.6622 27.6732 19.2263 27.3911 16.9998C27.291 16.2151 27.5913 15.4121 27.3001 14.6456C27.0362 13.9521 26.2719 13.5506 25.5075 13.5049C25.462 13.5049 25.4074 13.5049 25.3619 13.5049C28.0918 12.1818 31.0764 11.3332 34.234 11.0686L34.2431 11.0594ZM14.2786 24.0808C14.2877 23.9987 14.2968 23.9074 14.3059 23.8253C16.0894 20.7137 18.5008 18.0127 21.3672 15.9048C20.0205 17.3283 18.883 18.9617 17.9639 20.6498C17.5545 21.3981 17.2633 22.1737 16.9448 22.9493C16.3715 24.3546 15.7437 25.7781 15.5799 27.2928C15.4161 28.7619 15.8073 30.2402 16.1531 31.6637C16.4989 33.0689 16.7173 34.4742 16.9812 35.8886C17.4271 38.2428 18.1823 40.5606 19.6838 42.5316C21.3581 44.7216 23.7422 46.4188 26.3902 47.4956C27.382 47.8971 28.4103 48.2529 29.484 48.4263C30.3394 48.5632 31.222 48.6909 32.0319 48.9921C32.5324 49.1746 33.7244 49.8955 32.8782 50.4064C32.3959 50.6984 31.5405 50.5342 31.0127 50.4521C29.1655 50.1692 27.3729 49.5487 25.644 48.9099C24.4064 48.4537 22.8868 48.034 21.8313 47.2583C21.0942 46.7199 20.4663 46.063 19.7202 45.5337C19.1833 45.1504 18.3734 44.6029 17.6455 44.8219C15.9711 45.3329 17.9639 47.2857 18.5008 47.8606C18.9831 48.3716 19.8294 49.0742 19.9477 49.8042C15.9984 49.567 14.0784 45.7618 12.7135 42.7962C12.1584 41.5826 11.6761 40.4602 11.4669 39.1462C11.2212 37.5858 11.1575 35.9798 11.2849 34.4012C11.385 33.0872 11.5669 31.1618 12.6953 30.1763C12.8318 31.8462 12.7226 33.5252 12.9865 35.2042C13.1958 36.5364 13.6507 38.6717 15.4707 38.7721C15.5435 38.7721 15.589 38.7264 15.6163 38.6717C16.0621 37.6771 15.7618 36.6094 15.4343 35.6331C15.0339 34.4103 14.7427 33.2423 14.588 31.9648C14.2786 29.3916 14.0056 26.6723 14.2695 24.0899L14.2786 24.0808ZM13.9601 24.4641C13.8964 25.2853 13.8873 26.1157 13.9237 26.9461C13.9965 28.5429 14.0875 30.1398 14.2695 31.7276C14.3514 32.4393 14.4424 33.1511 14.588 33.8628C14.7336 34.5563 15.0066 35.2133 15.225 35.8886C15.4343 36.5547 15.8255 37.6041 15.4707 38.2884C15.3342 38.5531 15.2341 38.5166 14.9247 38.3797C14.7427 38.2976 14.5789 38.1881 14.4333 38.0512C13.7417 37.3942 13.5143 36.3813 13.3505 35.5144C13.0047 33.6529 13.1594 31.7823 12.9774 29.9117C12.9774 29.8204 12.85 29.7292 12.7499 29.7931C11.8854 30.3953 11.4941 31.4173 11.2758 32.4211C11.7307 29.5923 12.6498 26.9187 13.9601 24.4732V24.4641ZM36.4088 62.0226C31.8408 62.0226 27.5458 60.8089 23.8332 58.6828C25.8351 58.6828 27.8461 58.7011 29.8389 58.8471C33.4332 59.1026 36.7819 60.0607 39.8666 61.7944C38.7383 61.9496 37.5826 62.0317 36.4088 62.0317V62.0226ZM40.7493 61.6484C37.8829 59.9329 34.7254 58.8288 31.3403 58.4273C28.565 58.1079 25.7714 58.1627 22.9778 58.1627C20.2206 56.4472 17.8184 54.2024 15.8892 51.5836C17.3543 51.8847 18.883 52.0307 20.4663 52.1584C25.735 52.5782 31.0582 52.9614 36.1085 54.5127C38.6382 55.2883 40.8585 56.4837 43.0515 57.8525C44.198 58.5642 45.3173 59.2942 46.5002 59.9329C44.6803 60.7177 42.7603 61.3017 40.7584 61.6484H40.7493ZM47.1645 59.6227C45.7813 58.9201 44.4801 58.0897 43.1516 57.2502C38.8748 54.5857 34.3068 53.1805 29.2201 52.4596C26.745 52.1128 24.2427 51.9029 21.7494 51.7022C19.6656 51.5379 17.5181 51.4923 15.4889 51.0087C12.7044 46.9846 11.0392 42.1209 10.9664 36.8741C10.9937 37.4033 11.0392 37.9417 11.1029 38.4709C11.2758 39.9218 11.6761 41.1628 12.2767 42.4951C13.0411 44.1741 13.8418 45.8805 15.0339 47.3405C16.2987 48.8917 17.9912 50.0049 20.1387 50.0871C20.2206 50.0871 20.2934 50.0232 20.2843 49.9502C20.2661 49.4392 19.8931 48.9921 19.5655 48.5997C19.1105 48.0522 18.5918 47.5503 18.1277 47.0119C17.8093 46.6378 17.054 45.8622 17.3907 45.3421C17.8548 44.6212 19.0104 45.3694 19.4745 45.6888C20.4481 46.3641 21.2216 47.3222 22.3044 47.8423C23.3236 48.3259 24.3882 48.7366 25.4529 49.1289C26.8815 49.6582 28.3466 50.1418 29.8389 50.4886C30.7307 50.6985 32.0046 51.0543 32.9145 50.6984C33.688 50.3882 33.5333 49.5396 32.96 49.1289C31.9773 48.4081 30.4941 48.3168 29.302 48.1069C27.1818 47.742 25.0616 46.7199 23.3327 45.5428C21.44 44.2562 19.8476 42.5863 18.8284 40.6244C17.8912 38.8268 17.4362 36.8558 17.1177 34.8939C16.9357 33.7442 16.7082 32.6218 16.4261 31.4903C16.1349 30.2858 15.8255 29.0539 15.8528 27.8129C15.8892 26.5172 16.3442 25.2671 16.8265 24.0626C17.1723 23.2048 17.4817 22.3288 17.8821 21.4893C18.4917 20.1936 19.3016 18.9708 20.166 17.8119C20.9395 16.7717 21.8222 15.7041 22.8868 14.8828C23.4237 14.5361 23.9788 14.2167 24.5429 13.9247C24.8614 13.8152 25.189 13.7513 25.5257 13.7787C26.4629 13.8517 27.0817 14.4357 27.1363 15.2843C27.2 16.1512 26.6904 17.7754 27.9371 18.1404C28.4649 18.2956 29.0927 18.0766 29.575 17.8849C30.3212 17.6021 31.0218 17.2097 31.6861 16.7808C32.2048 16.4523 32.7417 16.0964 33.1602 15.6584C33.688 15.1109 33.8882 14.3627 34.0065 13.6509C34.1521 12.7658 34.1703 11.8533 34.5798 11.0412C35.1894 10.9956 35.7991 10.9773 36.427 10.9773C37.8647 10.9773 39.2843 11.0959 40.6583 11.3332C40.1578 11.6069 39.6846 11.9172 39.2479 12.2731C38.2014 13.1217 37.4552 14.2076 36.6181 15.2296C35.79 16.2607 34.8346 17.1093 33.7335 17.8849C32.7053 18.6058 31.677 19.3267 30.8489 20.2574C28.1464 23.3234 27.4821 27.5666 27.9007 31.3991C28.3193 35.2772 29.8571 39.2648 32.8236 42.1027C34.2067 43.4258 35.9174 44.4387 37.8374 44.9588C40.8585 45.771 43.9705 46.2819 46.9461 47.2401C49.1482 47.9518 51.2047 48.9282 52.9791 50.3334C53.9983 51.1456 55.0174 51.9577 56.0821 52.7151C53.6798 55.6351 50.6496 58.0167 47.1918 59.6318L47.1645 59.6227ZM58.4025 49.3388C55.6089 47.8697 52.6424 46.5739 50.0763 44.7581C49.1391 44.0919 48.0926 43.2798 47.6559 42.2304C47.2555 41.2814 47.6468 40.3963 48.3747 39.7028C49.6305 38.5074 51.0864 37.4124 52.5787 36.4999C53.5524 35.9068 56.073 34.3282 57.0102 35.7334C57.629 36.6642 56.901 37.8413 56.6553 38.7903C56.4006 39.7758 56.5552 40.7248 57.3742 41.4457C58.4298 42.3856 59.8038 42.4951 61.196 42.34C60.6137 44.8311 59.6582 47.1853 58.4025 49.3388ZM61.3143 41.7924C59.9403 41.9749 58.6026 41.8837 57.6654 40.9256C56.0093 39.2374 58.8938 37.0201 57.3742 35.2498C56.3551 34.0636 54.4623 34.8483 53.3249 35.4323C51.6233 36.2992 50.0945 37.4763 48.6659 38.6899C47.8288 39.4017 46.9643 40.1773 46.8915 41.2906C46.7459 43.4988 49.5395 45.1596 51.2593 46.1907C53.4705 47.5229 55.8364 48.6088 58.1204 49.8133C57.6017 50.6619 57.0375 51.4832 56.4188 52.2588C55.4542 51.5744 54.526 50.8444 53.607 50.1053C52.051 48.8643 50.3675 47.9062 48.4566 47.1762C45.5448 46.063 42.4327 45.4972 39.4025 44.7672C37.2004 44.2379 35.2804 43.5171 33.6152 42.048C32.0956 40.7066 30.949 39.0367 30.121 37.2664C28.383 33.5708 27.8461 29.2091 28.8743 25.2853C29.4021 23.2596 30.4122 21.2977 32.0592 19.8286C33.0328 18.9708 34.1703 18.3047 35.1803 17.4926C36.0903 16.7534 36.8274 15.8774 37.5371 14.9832C38.438 13.8426 39.3297 12.7658 40.6219 11.9811C40.9222 11.7986 41.2316 11.6343 41.55 11.4792C43.1243 11.7986 44.6439 12.2731 46.1089 12.8753C44.8714 13.3863 43.652 13.9429 42.5692 14.7459C41.0769 15.8501 39.9212 17.3009 38.802 18.7153C38.2287 19.4362 37.6736 20.1571 37.064 20.8506C36.5271 21.4711 35.9902 22.0733 35.517 22.7394C33.8063 25.1576 32.769 28.1141 33.2421 31.0158C33.4787 32.4667 34.1157 33.8354 35.0802 34.9943C35.5989 35.6239 36.2177 36.1714 36.8456 36.7098C37.4006 37.1843 37.983 37.6588 38.6473 37.9873C39.2752 38.3067 39.9758 38.4709 40.6947 38.4436C41.5045 38.4071 42.278 38.1516 43.0242 37.8596C44.6621 37.2208 46.2272 36.3631 47.6559 35.3867C48.3383 34.9213 48.9571 34.4012 49.585 33.8811C50.1673 33.3974 50.7952 32.9503 51.505 32.6583C51.9964 32.4484 52.515 32.2842 52.9882 32.0287C53.2976 31.8644 53.789 31.5724 53.6525 31.1709C53.5797 30.9702 53.3613 30.8333 53.1611 30.7329C52.8972 30.5961 52.5969 30.4957 52.2966 30.4683C51.7689 30.4227 51.2411 30.6052 50.7679 30.8151C49.6214 31.3261 48.6386 32.1017 47.5922 32.7496C47.2919 32.9321 46.9006 33.2058 46.5457 33.2332C45.2172 33.2332 43.8704 33.1237 42.5965 32.7496C41.3681 32.3937 40.1851 31.7549 39.5117 30.7056C39.1205 30.0851 38.9385 29.3551 38.8475 28.6433C38.7383 27.8129 38.7656 26.9643 38.8657 26.1339C39.0659 24.4641 39.5845 22.8307 40.1578 21.2338C40.5946 20.0202 41.1133 18.8066 41.9049 17.7389C42.6329 16.7534 43.5884 15.9504 44.6985 15.3482C45.381 14.9741 46.0907 14.6912 46.8187 14.3992C47.2737 14.2167 47.7378 14.0342 48.1836 13.8426C49.13 14.3353 50.04 14.8919 50.9135 15.4942C50.777 15.5672 50.6496 15.6493 50.5222 15.7223C48.402 17.0181 46.4183 18.5602 44.6985 20.2939C43.1607 21.8452 41.4682 23.8162 41.3226 26.0153C41.2589 26.9278 41.5591 27.8129 42.187 28.5247C43.0606 29.5102 44.3254 29.7383 45.6358 29.5649C47.2009 29.3551 48.6568 28.7346 50.14 28.2509C51.9509 27.6578 53.8891 27.5757 55.8 27.6852C57.3924 27.7764 59.0758 27.9954 60.6228 28.4699C61.4599 30.9884 61.9058 33.6803 61.9058 36.4817C61.9058 38.2976 61.7147 40.0769 61.3507 41.7833L61.3143 41.7924Z" fill="white"></path>
</svg>
